<svg width="200" height="207" viewBox="0 0 200 207" fill="none" xmlns="http://www.w3.org/2000/svg">
<circle cx="100" cy="107" r="100" fill="#105DFB"/>
<path d="M77.248 123.28C78.272 123.28 79.5947 123.152 81.216 122.896C82.8373 122.64 84.4587 122.171 86.08 121.488V136.208C83.264 137.061 80.5333 137.701 77.888 138.128C75.328 138.555 72.8533 138.768 70.464 138.768C66.7093 138.768 63.6373 138.213 61.248 137.104C58.8587 135.909 56.9813 134.416 55.616 132.624C54.336 130.832 53.44 128.827 52.928 126.608C52.5013 124.304 52.288 122 52.288 119.696V88.976H40.512V74H52.288V54.544H70.08V74H86.08V88.976H70.08V115.856C70.08 118.587 70.6347 120.507 71.744 121.616C72.8533 122.725 74.688 123.28 77.248 123.28ZM157.415 87.44C155.367 87.184 153.276 87.1413 151.143 87.312C149.095 87.3973 147.303 87.6107 145.767 87.952C146.62 90.3413 147.047 92.944 147.047 95.76C147.047 99.5147 146.322 102.843 144.871 105.744C143.506 108.56 141.543 110.949 138.983 112.912C136.508 114.789 133.564 116.24 130.151 117.264C126.738 118.288 123.026 118.8 119.015 118.8C117.479 118.8 115.986 118.715 114.535 118.544C112.658 119.312 111.719 120.293 111.719 121.488C111.719 122.512 112.231 123.195 113.255 123.536C114.364 123.877 115.9 124.048 117.863 124.048H124.647C127.378 124.048 130.407 124.219 133.735 124.56C137.063 124.901 140.178 125.712 143.079 126.992C146.066 128.187 148.54 129.979 150.503 132.368C152.551 134.757 153.575 138.043 153.575 142.224C153.575 149.051 150.503 154.256 144.359 157.84C138.215 161.509 129.682 163.344 118.759 163.344C108.434 163.344 100.455 161.424 94.823 157.584C89.191 153.829 86.6737 148.325 87.271 141.072H104.551C104.295 143.717 105.404 145.851 107.879 147.472C110.354 149.179 114.194 150.032 119.399 150.032C124.604 150.032 128.402 149.435 130.791 148.24C133.18 147.045 134.375 145.381 134.375 143.248C134.375 141.797 133.948 140.688 133.095 139.92C132.327 139.152 131.303 138.555 130.023 138.128C128.743 137.787 127.378 137.573 125.927 137.488C124.476 137.317 123.068 137.232 121.703 137.232H112.615C110.823 137.232 108.946 137.147 106.983 136.976C105.02 136.72 103.228 136.251 101.607 135.568C100.071 134.885 98.791 133.861 97.767 132.496C96.743 131.131 96.231 129.296 96.231 126.992C96.231 124.517 96.9563 122.341 98.407 120.464C99.943 118.501 101.692 116.88 103.655 115.6C99.815 113.808 96.743 111.248 94.439 107.92C92.2203 104.592 91.111 100.539 91.111 95.76C91.111 92.0907 91.7937 88.8053 93.159 85.904C94.6097 83.0027 96.5723 80.6133 99.047 78.736C101.607 76.7733 104.594 75.28 108.007 74.256C111.42 73.232 115.09 72.72 119.015 72.72C123.623 72.72 127.804 73.36 131.559 74.64C135.314 75.92 138.428 77.7973 140.903 80.272C141.5 79.3333 142.311 78.352 143.335 77.328C144.359 76.2187 145.554 75.28 146.919 74.512C148.37 73.744 149.948 73.1893 151.655 72.848C153.447 72.4213 155.367 72.3787 157.415 72.72V87.44ZM119.015 105.616C122.77 105.616 125.372 104.635 126.823 102.672C128.359 100.624 129.127 98.32 129.127 95.76C129.127 93.2 128.359 90.9387 126.823 88.976C125.287 86.928 122.684 85.904 119.015 85.904C115.431 85.904 112.871 86.928 111.335 88.976C109.799 90.9387 109.031 93.2 109.031 95.76C109.031 98.32 109.799 100.624 111.335 102.672C112.871 104.635 115.431 105.616 119.015 105.616Z" fill="white"/>
</svg>
